<svg width="81" height="50" viewBox="0 0 81 50" fill="none" xmlns="http://www.w3.org/2000/svg">
<path d="M36.1198 0.493868H32.4139V25.8929H36.1198V23.4149C37.8477 24.9568 40.1205 25.8929 42.6082 25.8929C46.1537 25.8929 49.2633 24.0047 50.988 21.1869C50.1994 20.1098 49.462 18.9781 48.7279 17.8529L48.5356 17.5612C47.8784 20.2156 45.4773 22.1839 42.6082 22.1839C39.2582 22.1839 36.5429 19.4526 36.5429 16.0898C36.5429 12.727 39.2582 10.0117 42.6082 10.0117H42.6306V10.0021C46.0447 9.99567 48.2118 13.3168 50.443 16.7373C53.3794 21.2414 56.4121 25.8865 62.6985 25.8865H62.721C68.1098 25.8865 72.4953 21.4978 72.4953 16.093C72.4953 10.6881 68.1098 6.29304 62.721 6.29304C58.9061 6.29304 55.5946 8.47615 53.9693 11.6562C54.4053 12.2974 54.8317 12.9514 55.2612 13.6053C55.7132 14.2946 56.1652 14.9902 56.6269 15.6538C56.8513 12.4961 59.4896 9.99887 62.721 9.99887C65.9523 9.99887 68.7862 12.7302 68.7862 16.093C68.7862 19.4558 66.0709 22.1678 62.721 22.1678H62.6985C58.4093 22.1678 55.9408 18.3883 53.5461 14.7209C50.7572 10.4445 48.0483 6.29304 42.6306 6.30266V6.29304H42.6082C40.1205 6.29304 37.8477 7.22912 36.1198 8.76787V0.490662V0.493868Z" fill="url(#paint0_linear_14_458)"/>
<path fill-rule="evenodd" clip-rule="evenodd" d="M42.3718 49.2563C44.7248 49.2563 47.0843 48.41 48.7737 46.9194L46.5265 43.9637C45.5295 44.903 43.9587 45.5505 42.3558 45.5505C39.1276 45.5505 36.2489 42.9763 36.2489 39.4019C36.2489 35.8275 39.1116 33.2533 42.3558 33.2533C43.9426 33.2533 45.4974 33.8688 46.4623 34.7921L48.5429 31.6985C46.8663 30.3265 44.619 29.5443 42.3558 29.5443C37.0792 29.5443 32.5398 33.7919 32.5398 39.4019C32.5398 45.012 37.092 49.2596 42.3718 49.2596V49.2563ZM71.0279 46.5122V48.6312H67.3221V38.4178H67.3317C67.5497 33.2116 71.8486 29.0346 77.0963 29.0346C78.3177 29.0346 79.491 29.259 80.5714 29.6693C80.2668 29.9194 79.9751 30.1822 79.6962 30.4611C78.9973 31.1568 78.3851 31.9422 77.8785 32.7917C77.6221 32.7596 77.3624 32.7436 77.0996 32.7436C73.7496 32.7436 71.0343 35.4749 71.0343 38.8377V46.5122H71.0279ZM4.45119 46.5122V48.6312H0.745361V38.4178H0.754978C0.972968 33.2116 5.27186 29.0346 10.5196 29.0346C11.741 29.0346 12.9143 29.259 13.9947 29.6693C13.6901 29.9194 13.3984 30.1822 13.1195 30.4611C12.4206 31.1568 11.8084 31.9422 11.3018 32.7917C11.0454 32.7596 10.7857 32.7436 10.5229 32.7436C7.17286 32.7436 4.4576 35.4749 4.4576 38.8377V46.5122H4.45119ZM31.2479 38.4178H31.2383C31.0203 33.2116 26.7214 29.0346 21.4736 29.0346C16.2258 29.0346 11.6577 33.436 11.6577 38.8345C11.6577 44.233 16.0591 48.628 21.4736 48.628C23.7625 48.628 25.8719 47.8362 27.5389 46.509V48.628H31.2447V38.4146L31.2479 38.4178ZM21.4768 44.9126C18.1012 44.9126 15.3699 42.1973 15.3699 38.8377C15.3699 35.4781 18.1012 32.7436 21.4768 32.7436C24.8525 32.7436 27.5421 35.4749 27.5421 38.8377C27.5421 42.2005 24.8268 44.9126 21.4768 44.9126ZM65.8923 38.6646C65.8923 33.9426 62.5359 29.6052 57.2304 29.6052C51.9249 29.6052 47.8985 33.7598 47.8985 39.4147C47.8985 45.0697 52.0531 49.1986 57.2945 49.1986C59.6315 49.1986 62.568 48.3363 64.5844 46.1308L62.0807 43.6463C60.6061 45.0376 58.7884 45.573 57.3747 45.573C54.5921 45.573 52.3032 43.6784 51.6717 40.9054H65.4627V40.8894L65.5204 40.9054C65.7513 40.2611 65.8923 39.5558 65.8923 38.6614V38.6646ZM57.2464 33.2181C60.1701 33.2181 61.9044 35.3242 62.2795 37.985H51.6236C52.175 35.1543 54.4382 33.2181 57.2496 33.2181H57.2464Z" fill="white"/>
<path fill-rule="evenodd" clip-rule="evenodd" d="M4.45119 23.7964V25.9154H0.745361V15.7019H0.754978C0.972968 10.4958 5.27186 6.31873 10.5196 6.31873C11.741 6.31873 12.9143 6.54313 13.9947 6.95346C13.6901 7.20351 13.3984 7.46638 13.1195 7.74528C12.4206 8.44092 11.8084 9.22633 11.3018 10.0758C11.0454 10.0438 10.7857 10.0278 10.5229 10.0278C7.17286 10.0278 4.4576 12.759 4.4576 16.1219V23.7964H4.45119ZM21.4929 25.9154C26.8817 25.9154 31.2672 21.5267 31.2672 16.1219C31.2672 10.717 26.8817 6.32193 21.4929 6.32193C16.104 6.32193 11.6769 10.7234 11.6769 16.1219C11.6769 21.5203 16.0784 25.9154 21.4929 25.9154ZM21.4929 22.1967C18.1172 22.1967 15.3859 19.4815 15.3859 16.1219C15.3859 12.7623 18.1172 10.0278 21.4929 10.0278C24.8685 10.0278 27.5581 12.759 27.5581 16.1219C27.5581 19.4847 24.8429 22.1967 21.4929 22.1967Z" fill="white"/>
<defs>
<linearGradient id="paint0_linear_14_458" x1="36.6596" y1="26.7863" x2="70.3833" y2="5.37748" gradientUnits="userSpaceOnUse">
<stop stop-color="#00D1DA"/>
<stop offset="1" stop-color="#FC00FF"/>
</linearGradient>
</defs>
</svg>
