<svg width="177" height="31" viewBox="0 0 177 31" fill="none" xmlns="http://www.w3.org/2000/svg">
<path d="M40.9417 0.00180241H36.6537V29.3774H40.9417V26.5098C42.9387 28.2924 45.5685 29.3774 48.446 29.3774C52.5474 29.3774 56.1432 27.1947 58.1393 23.936C57.2264 22.6887 56.373 21.3802 55.5241 20.0788L55.3033 19.74C54.5417 22.8086 51.7642 25.0877 48.446 25.0877C44.5708 25.0877 41.4301 21.929 41.4301 18.0403C41.4301 14.1516 44.5708 11.0109 48.446 11.0109H48.4703V10.9992C52.4194 10.9911 54.9239 14.8311 57.5049 18.7883C60.9033 23.9973 64.4081 29.3693 71.679 29.3693V29.3729H71.7034C77.9361 29.3729 83.009 24.2955 83.009 18.0448C83.009 11.7941 77.9361 6.71036 71.7034 6.71036C67.2911 6.71036 63.4601 9.23644 61.5828 12.9151C62.0875 13.6559 62.5805 14.413 63.0752 15.1718C63.5961 15.9693 64.1206 16.7741 64.656 17.5428C64.9146 13.8894 67.967 11.0001 71.7034 11.0001C75.4398 11.0001 78.7192 14.1588 78.7192 18.0475C78.7192 21.9362 75.5785 25.0751 71.7034 25.0751H71.679V25.0787C66.7161 25.0787 63.862 20.7025 61.0944 16.4605C57.8681 11.5138 54.7355 6.71307 48.4685 6.72478V6.71307H48.4442C45.5667 6.71307 42.9369 7.79631 40.9399 9.57529V0L40.9417 0.00180241Z" fill="white"/>
<path fill-rule="evenodd" clip-rule="evenodd" d="M132.817 30.1021C135.538 30.1021 138.266 29.1242 140.221 27.3984L137.621 23.9793C136.467 25.067 134.651 25.8141 132.798 25.8141C129.062 25.8141 125.732 22.8375 125.732 18.7018C125.732 14.6005 129.043 11.5895 132.798 11.5895C134.633 11.5895 136.431 12.3006 137.548 13.3685L139.953 9.78983C138.015 8.20371 135.417 7.2998 132.798 7.2998C126.693 7.2998 121.445 12.2132 121.445 18.7018C121.445 25.2085 126.711 30.1039 132.816 30.1039L132.818 30.1021H132.817ZM4.28793 26.928V29.3793H0V17.5672H0.0117156C0.265855 11.5463 5.23509 6.71582 11.3056 6.71582C12.7196 6.71582 14.075 6.97447 15.3232 7.4494C14.9708 7.73779 14.6337 8.04239 14.3102 8.36322C13.5027 9.1689 12.7944 10.0755 12.2068 11.0605C11.9121 11.0227 11.6102 11.0028 11.3056 11.0028C7.43042 11.0028 4.28973 14.1616 4.28973 18.0503V26.9271H4.28793V26.928ZM23.9982 29.3793C30.2309 29.3793 35.3019 24.3019 35.3019 18.0512C35.3019 11.8004 30.2291 6.71672 23.9982 6.71672C17.7672 6.71672 12.6457 11.8076 12.6457 18.0512C12.6457 24.2947 17.7366 29.3793 23.9982 29.3793ZM23.9982 25.0787C20.0923 25.0787 16.9327 21.9381 16.9327 18.0512C16.9327 14.1634 20.0914 11.0037 23.9982 11.0037C27.9049 11.0037 31.014 14.1625 31.014 18.0512C31.014 21.9399 27.8733 25.0787 23.9982 25.0787ZM165.965 26.928V29.3793H161.677V17.5672H161.689C161.943 11.5463 166.912 6.71582 172.982 6.71582C174.396 6.71582 175.752 6.97447 177 7.4494C176.648 7.73779 176.311 8.04239 175.987 8.36322C175.18 9.1689 174.471 10.0755 173.884 11.0605C173.589 11.0227 173.287 11.0028 172.982 11.0028C169.107 11.0028 165.967 14.1616 165.967 18.0503V26.9271H165.965V26.928ZM88.9587 26.928V29.3793H84.6708V17.5672H84.6825C84.9366 11.5463 89.9059 6.71582 95.9764 6.71582C97.3904 6.71582 98.7458 6.97447 99.9939 7.4494C99.6416 7.73779 99.3045 8.04239 98.981 8.36322C98.1735 9.1689 97.4652 10.0755 96.8776 11.0605C96.5829 11.0227 96.281 11.0028 95.9764 11.0028C92.1012 11.0028 88.9605 14.1616 88.9605 18.0503V26.9271H88.9587V26.928ZM119.954 17.5672H119.942C119.688 11.5463 114.719 6.71582 108.648 6.71582C102.578 6.71582 97.2957 11.8067 97.2957 18.0503C97.2957 24.301 102.387 29.3784 108.648 29.3784C111.296 29.3784 113.735 28.461 115.664 26.9271V29.3784H119.952V17.5663H119.954V17.5672ZM108.65 25.0796C104.744 25.0796 101.585 21.939 101.585 18.0521C101.585 14.1652 104.743 11.0046 108.65 11.0046C112.557 11.0046 115.666 14.1634 115.666 18.0521C115.666 21.9408 112.525 25.0796 108.65 25.0796ZM160.022 17.8511C160.022 12.3898 156.141 7.3728 150.004 7.3728C143.868 7.3728 139.21 12.178 139.21 18.7208C139.21 25.2635 144.015 30.0372 150.077 30.0372C152.781 30.0372 156.176 29.0413 158.509 26.49L155.613 23.6161C153.906 25.2265 151.803 25.8457 150.169 25.8457C146.949 25.8457 144.302 23.653 143.573 20.4457H159.525V20.4276L159.592 20.4457C159.859 19.6986 160.023 18.8839 160.023 17.852L160.021 17.8502L160.022 17.8511ZM150.024 11.5508C153.407 11.5508 155.412 13.9867 155.844 17.0661H143.519C144.157 13.7921 146.775 11.5508 150.026 11.5508H150.024Z" fill="white"/>
</svg>
